<?xml version="1.0"?><svg fill="#000000" xmlns="http://www.w3.org/2000/svg"  viewBox="0 0 30 30" width="60px" height="60px">    <path d="M 6 4 C 4.895 4 4 4.895 4 6 L 4 24 C 4 25.105 4.895 26 6 26 L 24 26 C 25.105 26 26 25.105 26 24 L 26 6 C 26 4.895 25.105 4 24 4 L 6 4 z M 10.414062 10.126953 L 12.396484 10.126953 L 15.902344 19.992188 L 14.009766 19.992188 L 13.175781 17.46875 L 9.5449219 17.46875 L 8.6972656 19.992188 L 6.9140625 19.992188 L 10.414062 10.126953 z M 11.308594 12.007812 L 9.9550781 16.074219 L 12.765625 16.074219 L 11.425781 12.007812 L 11.308594 12.007812 z M 20.154297 12.363281 C 22.287297 12.363281 23.566406 13.777719 23.566406 16.136719 L 23.566406 16.683594 L 18.34375 16.683594 L 18.34375 16.771484 C 18.38475 18.015484 19.101797 18.794922 20.216797 18.794922 C 21.056797 18.794922 21.638766 18.487594 21.884766 17.933594 L 23.490234 17.933594 C 23.170234 19.294594 21.930969 20.142578 20.167969 20.142578 C 17.966969 20.142578 16.640625 18.685297 16.640625 16.279297 C 16.640625 13.873297 17.988297 12.363281 20.154297 12.363281 z M 20.148438 13.707031 C 19.136437 13.707031 18.425609 14.432391 18.349609 15.525391 L 21.871094 15.525391 C 21.836094 14.418391 21.165437 13.707031 20.148438 13.707031 z"/></svg>