<svg fill="#000000" xmlns="http://www.w3.org/2000/svg"  viewBox="0 0 24 24" width="48px" height="48px"><path d="M 5 3 C 3.898438 3 3 3.898438 3 5 L 3 19 C 3 20.101563 3.898438 21 5 21 L 19 21 C 20.101563 21 21 20.101563 21 19 L 21 5 C 21 3.898438 20.101563 3 19 3 Z M 15.5 7.5 C 16 7.5 16.40625 7.90625 16.40625 8.40625 C 16.40625 8.90625 16 9.3125 15.5 9.3125 C 15 9.3125 14.59375 8.90625 14.59375 8.40625 C 14.59375 7.90625 15 7.5 15.5 7.5 Z M 9.6875 7.90625 L 11.3125 7.90625 L 14 16.40625 L 12.09375 16.40625 L 11.59375 14.6875 L 9.3125 14.6875 L 8.8125 16.40625 L 7 16.40625 Z M 14.6875 10.09375 L 16.40625 10.09375 L 16.40625 16.40625 L 14.6875 16.40625 Z M 10.5 10.1875 L 9.6875 13.1875 L 11.3125 13.1875 Z"/></svg>