<?xml version="1.0"?><svg fill="#000000" xmlns="http://www.w3.org/2000/svg"  viewBox="0 0 24 24" width="48px" height="48px">    <path d="M 5 3 C 3.9069372 3 3 3.9069372 3 5 L 3 19 C 3 20.093063 3.9069372 21 5 21 L 19 21 C 20.093063 21 21 20.093063 21 19 L 21 5 C 21 3.9069372 20.093063 3 19 3 L 5 3 z M 5 8 L 19 8 L 19 19 L 5 19 L 5 8 z M 7.7929688 10.792969 L 6.7929688 11.792969 L 9 14 L 6.7929688 16.207031 L 7.7929688 17.207031 L 11 14 L 7.7929688 10.792969 z M 12 15.5 L 12 17 L 17 17 L 17 15.5 L 12 15.5 z"/></svg>