<svg fill="#000000" xmlns="http://www.w3.org/2000/svg"  viewBox="0 0 24 24" width="48px" height="48px"><path d="M 20.292969 11.792969 L 12.207031 3.707031 C 11.816406 3.316406 11.183594 3.316406 10.792969 3.707031 L 9.101563 5.394531 L 10.855469 7.148438 C 11.050781 7.058594 11.269531 7 11.5 7 C 12.328125 7 13 7.671875 13 8.5 C 13 8.730469 12.941406 8.945313 12.847656 9.144531 L 14.855469 11.148438 C 15.050781 11.058594 15.269531 11 15.5 11 C 16.328125 11 17 11.671875 17 12.5 C 17 13.328125 16.328125 14 15.5 14 C 14.671875 14 14 13.328125 14 12.5 C 14 12.269531 14.054688 12.054688 14.148438 11.855469 L 12.140625 9.851563 C 12.097656 9.871094 12.046875 9.890625 12 9.90625 L 12 15.09375 C 12.578125 15.300781 13 15.847656 13 16.5 C 13 17.328125 12.328125 18 11.5 18 C 10.671875 18 10 17.328125 10 16.5 C 10 15.847656 10.417969 15.296875 11 15.09375 L 11 9.90625 C 10.417969 9.699219 10 9.152344 10 8.5 C 10 8.269531 10.054688 8.054688 10.148438 7.855469 L 8.394531 6.105469 L 2.707031 11.792969 C 2.316406 12.183594 2.316406 12.816406 2.707031 13.207031 L 10.792969 21.292969 C 11.183594 21.683594 11.816406 21.683594 12.207031 21.292969 L 20.292969 13.207031 C 20.683594 12.816406 20.683594 12.183594 20.292969 11.792969 Z"/></svg>