<?xml version="1.0"?><svg fill="#000000" xmlns="http://www.w3.org/2000/svg"  viewBox="0 0 24 24" width="48px" height="48px">    <path d="M 5 3 C 3.9 3 3 3.9 3 5 L 3 19 C 3 20.1 3.9 21 5 21 L 19 21 C 20.1 21 21 20.1 21 19 L 21 5 C 21 3.9 20.1 3 19 3 L 5 3 z M 6.890625 8 L 9.5898438 8 C 11.915844 8 12.193359 10.140469 12.193359 10.605469 C 12.192359 12.465469 10.891641 13.115234 9.6816406 13.115234 L 8.5644531 13.115234 L 8.5644531 15.90625 L 6.890625 15.90625 L 6.890625 8 z M 8.5644531 9.3027344 L 8.5644531 11.814453 L 9.6816406 11.814453 C 10.425641 11.814453 10.611328 11.256469 10.611328 10.605469 C 10.612328 9.9534687 10.333641 9.3027344 9.6816406 9.3027344 L 8.5644531 9.3027344 z M 15.169922 9.953125 C 16.564922 9.953125 17.308594 10.791453 17.308594 11.814453 L 15.728516 11.814453 C 15.728516 11.349453 15.541922 11.070312 15.169922 11.070312 C 14.890922 11.070312 14.611328 11.256906 14.611328 11.628906 C 14.611328 12.558906 17.310547 12.279172 17.310547 14.326172 C 17.309547 15.721172 15.913922 16 15.169922 16 C 13.681922 16 12.9375 14.976875 12.9375 14.046875 L 14.425781 14.046875 C 14.425781 14.790875 14.983922 14.884766 15.169922 14.884766 C 15.541922 14.884766 15.820313 14.698172 15.820312 14.326172 C 15.820312 13.489172 13.121094 13.581703 13.121094 11.720703 C 13.121094 10.325703 14.424922 9.953125 15.169922 9.953125 z"/></svg>