<svg fill="#000000" xmlns="http://www.w3.org/2000/svg"  viewBox="0 0 24 24" width="48px" height="48px"><path d="M 12 2 C 6.486 2 2 6.486 2 12 C 2 17.514 6.486 22 12 22 C 17.514 22 22 17.514 22 12 C 22 6.486 17.514 2 12 2 z M 14.337891 6.0058594 C 15.554707 6.071582 16.520781 6.5667969 16.738281 7.4199219 C 17.080281 8.7639219 15.913875 10.370266 14.421875 10.947266 C 13.089875 11.462266 11.988156 11.381422 11.535156 11.232422 C 11.020156 11.063422 10.718531 10.72325 10.644531 10.53125 C 10.615531 10.45625 10.565531 10.331109 10.644531 10.287109 C 10.692531 10.260109 10.712797 10.266203 10.841797 10.408203 C 10.964797 10.543203 11.458484 10.907734 12.396484 10.802734 C 14.859484 10.526734 16.343 8.6120313 15.875 7.5820312 C 15.547 6.8610312 13.648344 6.53675 11.277344 7.71875 C 8.3823438 9.16275 8.2242187 10.353688 8.1992188 10.804688 C 8.1312188 12.046687 9.7326094 12.699047 10.599609 13.623047 L 10.660156 13.689453 C 10.922156 13.591453 11.284328 13.537344 11.861328 13.527344 C 13.262328 13.503344 14.054484 14.428906 14.021484 15.253906 C 13.995484 15.903906 13.399109 16.170453 13.287109 16.189453 C 13.206109 16.203453 13.164344 16.205578 13.152344 16.142578 C 13.144344 16.099578 13.173578 16.079484 13.267578 16.021484 C 13.362578 15.963484 13.644312 15.769016 13.695312 15.416016 C 13.746313 15.064016 13.480813 14.222453 12.132812 14.064453 C 11.654813 14.008453 11.279031 14.045859 10.957031 14.130859 C 11.191031 14.645859 11.235266 15.682375 10.697266 16.484375 C 10.140266 17.316375 9.1027969 17.822016 8.0917969 17.541016 C 7.7657969 17.450016 7.2722656 16.775937 7.6972656 15.835938 C 8.1002656 14.944937 9.8235938 14.073031 10.058594 13.957031 L 10.058594 13.953125 C 9.2605937 13.266125 7.320875 12.341781 7.046875 10.925781 C 6.968875 10.524781 7.1578906 9.5629844 8.3378906 8.4589844 C 9.3298906 7.5309844 10.710375 6.8201875 11.984375 6.3671875 C 12.787625 6.0818125 13.607801 5.9664258 14.337891 6.0058594 z M 10.388672 14.378906 C 10.364672 14.391906 10.341359 14.405969 10.318359 14.417969 L 10.318359 14.419922 C 10.318359 14.419922 9.5179375 14.797719 8.9609375 15.386719 C 8.4429375 15.933719 8.2998906 16.621063 8.5878906 16.789062 C 8.8558906 16.944063 9.4797812 16.760438 9.9257812 16.273438 C 10.071781 16.113437 10.190297 15.940859 10.279297 15.755859 C 10.297297 15.718859 10.314078 15.680578 10.330078 15.642578 C 10.345078 15.604578 10.358094 15.566344 10.371094 15.527344 C 10.486094 15.178344 10.500672 14.792906 10.388672 14.378906 z"/></svg>