<?xml version="1.0" encoding="UTF-8" standalone="no"?>
<svg
   xmlns="http://www.w3.org/2000/svg"
   viewBox="0 0 28 28"
   focusable="false"
   version="1.1"
   id="svg6">
  <defs
     id="defs10">
    <clipPath
       id="clipPath845">
      <path
         d="M 6.2,21.8 C 4.1,19.7 3,16.9 3,14.2 L 13.9,25 C 11.1,24.9 8.3,23.9 6.2,21.8 Z M 16.4,24.7 3.3,11.6 C 4.4,6.7 8.8,3 14,3 c 3.7,0 6.9,1.8 8.9,4.5 L 21.4,8.8 C 19.7,6.5 17,5 14,5 10.1,5 6.8,7.5 5.5,11 L 17,22.5 c 2.9,-1 5.1,-3.5 5.8,-6.5 H 18 v -2 h 7 c 0,5.2 -3.7,9.6 -8.6,10.7 z"
         id="path847"
         style="display:none" />
      <path
         id="lpe_path-effect849"
         d="M -5,-5 H 33 V 33 H -5 Z M 6.2,21.8 c 2.1,2.1 4.9,3.1 7.7,3.2 L 3,14.2 c 0,2.7 1.1,5.5 3.2,7.6 z m 10.2,2.9 C 21.3,23.6 25,19.2 25,14 h -7 v 2 h 4.8 c -0.7,3 -2.9,5.5 -5.8,6.5 L 5.5,11 C 6.8,7.5 10.1,5 14,5 c 3,0 5.7,1.5 7.4,3.8 L 22.9,7.5 C 20.9,4.8 17.7,3 14,3 8.8,3 4.4,6.7 3.3,11.6 Z" />
    </clipPath>
  </defs>
  <path
     id="circle2"
     clip-path="url(#clipPath845)"
     d="M 28,14 A 14,14 0 0 1 14,28 14,14 0 0 1 0,14 14,14 0 0 1 14,0 14,14 0 0 1 28,14 Z"
     transform="matrix(0.79988495,0,0,0.79988495,2.8016107,2.8016107)" />
</svg>
