<svg fill="#000000" xmlns="http://www.w3.org/2000/svg"  viewBox="0 0 50 50" width="100px" height="100px"><path d="M 15.6875 4 C 14.085938 4 12.707031 4.886719 11.90625 6.1875 L 6.8125 15.3125 L 11.1875 23 L 17.5 12 L 41.3125 12 L 38.09375 6.1875 C 37.292969 4.886719 35.914063 4 34.3125 4 Z M 18.59375 14 L 12.3125 25 L 17.40625 33.90625 L 18.59375 36 L 31.3125 36 L 37.6875 25 L 31.3125 14 Z M 33.6875 14 L 40 25 L 39.6875 25.5 L 27.90625 46 L 34.3125 46 C 35.914063 46 37.292969 45.113281 38.09375 43.8125 L 47.40625 27.3125 C 48.207031 25.914063 48.207031 24.113281 47.40625 22.8125 L 42.5 14 Z M 5.59375 17.40625 L 2.5 22.8125 C 1.699219 24.210938 1.699219 25.914063 2.5 27.3125 L 11.8125 43.8125 C 12.613281 45.210938 13.992188 46 15.59375 46 L 25.5 46 L 30.1875 38 L 17.5 38 L 15.8125 35 L 15.6875 34.8125 L 10 25 Z M 25 20 C 27.800781 20 30 22.199219 30 25 C 30 27.800781 27.800781 30 25 30 C 22.199219 30 20 27.800781 20 25 C 20 22.199219 22.199219 20 25 20 Z"/></svg>