<svg fill="#000000" xmlns="http://www.w3.org/2000/svg"  viewBox="0 0 24 24" width="48px" height="48px"><path d="M 6 2 C 4.895 2 4 2.895 4 4 L 4 9 L 3 9 C 1.895 9 1 9.895 1 11 L 1 16 C 1 17.105 1.895 18 3 18 L 4 18 L 4 20 C 4 21.105 4.895 22 6 22 L 18 22 C 19.105 22 20 21.105 20 20 L 20 18 C 21.105 18 22 17.105 22 16 L 22 11 C 22 9.895 21.105 9 20 9 L 20 7 L 15 2 L 6 2 z M 6 4 L 14 4 L 14 8 L 18 8 L 18 9 L 6 9 L 6 4 z M 4.9960938 11 L 5.9960938 11 L 5.9960938 14.5 C 5.9960938 15.328 5.3240938 16 4.4960938 16 C 3.6680937 16 2.9960938 15.328 2.9960938 14.5 L 3.9960938 14.5 C 3.9960938 14.776 4.2200938 15 4.4960938 15 C 4.7720937 15 4.9960938 14.776 4.9960938 14.5 L 4.9960938 11 z M 8.3574219 11 L 9.6582031 11 L 11.011719 16 L 9.9472656 16 L 9.6894531 15 L 8.3203125 15 L 8.0625 16 L 7.0117188 16 L 8.3574219 11 z M 11.009766 11 L 12.0625 11 L 13.001953 14.646484 L 13.947266 11 L 15.011719 11 L 13.65625 16 L 12.355469 16 L 11.009766 11 z M 16.353516 11 L 17.654297 11 L 19.009766 16 L 17.945312 16 L 17.6875 15 L 16.318359 15 L 16.060547 16 L 15.007812 16 L 16.353516 11 z M 9.0039062 12.353516 L 8.578125 14 L 9.4316406 14 L 9.0039062 12.353516 z M 17 12.353516 L 16.576172 14 L 17.427734 14 L 17 12.353516 z M 6 18 L 18 18 L 18 20 L 6 20 L 6 18 z"/></svg>