<svg xmlns="http://www.w3.org/2000/svg" viewBox="0 0 256 256">
    <g id="ARI Symbol">
        <path
              d="M0,128A128,128,0,1,0,128,0,128,128,0,0,0,0,128Zm166,37.26a12.8,12.8,0,0,1,12.8,12.8v1.14A12.8,12.8,0,0,1,166,192h-1.14a12.8,12.8,0,0,1-12.8-12.8v-1.14a12.8,12.8,0,0,1,12.8-12.8Zm-37.43,0a12.8,12.8,0,0,1,12.8,12.8v1.14a12.8,12.8,0,0,1-12.8,12.8h-1.14a12.8,12.8,0,0,1-12.8-12.8v-1.14a12.8,12.8,0,0,1,12.8-12.8Zm-37.43,0a12.8,12.8,0,0,1,12.8,12.8v1.14A12.8,12.8,0,0,1,91.14,192H90a12.8,12.8,0,0,1-12.8-12.8v-1.14A12.8,12.8,0,0,1,90,165.26ZM166,128a12.8,12.8,0,0,1,12.8,12.8v1.14a12.8,12.8,0,0,1-12.8,12.8h-1.14a12.8,12.8,0,0,1-12.8-12.8V140.8a12.8,12.8,0,0,1,12.8-12.8Zm-37.43-26.74a12.8,12.8,0,0,1,12.8,12.8v27.88a12.8,12.8,0,0,1-12.8,12.8h-1.14a12.8,12.8,0,0,1-12.8-12.8V114.06a12.8,12.8,0,0,1,12.8-12.8Zm-37.43,0a12.8,12.8,0,0,1,12.8,12.8v27.88a12.8,12.8,0,0,1-12.8,12.8H90a12.8,12.8,0,0,1-12.8-12.8V114.06A12.8,12.8,0,0,1,90,101.26ZM128.57,64a12.8,12.8,0,0,1,12.8,12.8v1.14a12.8,12.8,0,0,1-12.8,12.8h-1.14a12.8,12.8,0,0,1-12.8-12.8V76.8A12.8,12.8,0,0,1,127.43,64Z"/>
    </g>
</svg>